<?xml version="1.0" encoding="UTF-8"?>
<svg width="195px" height="32px" viewBox="0 0 195 32" version="1.1" xmlns="http://www.w3.org/2000/svg" xmlns:xlink="http://www.w3.org/1999/xlink">
    <!-- Generator: Sketch 49.3 (51167) - http://www.bohemiancoding.com/sketch -->
    <title>Diana Datskaya Copy</title>
    <desc>Created with Sketch.</desc>
    <defs></defs>
    <g id="Page-1" stroke="none" stroke-width="1" fill="none" fill-rule="evenodd">
        <path d="M21.0942446,1.48521376 C20.9501993,1.67530446 20.8301634,1.83767117 20.7341332,1.97231876 C20.6381031,2.10696634 20.5460756,2.24953223 20.4580479,2.40002071 C20.3700203,2.55050918 20.2779927,2.72079622 20.1819626,2.91088692 C20.0859324,3.10097763 19.9738989,3.34650777 19.8458587,3.64748473 C20.1979693,3.25146242 20.518065,2.89504769 20.8061555,2.57822985 C21.094246,2.26141201 21.3663274,2.00004121 21.6224078,1.79410961 C21.8784883,1.58817801 22.1345649,1.44165196 22.3906453,1.35452705 C22.6467257,1.26740214 22.9348119,1.25552165 23.2549124,1.31888522 C24.0071487,1.44561236 24.5793199,1.84558889 24.971443,2.5188268 C25.3635662,3.19206472 25.5996368,4.03161941 25.6796619,5.03751606 C25.7596871,6.04341271 25.6996691,7.17601951 25.4996063,8.43537044 C25.2995434,9.69472137 24.9874501,10.9738542 24.5633169,12.2728074 C24.1391837,13.5717605 23.6110257,14.8469332 22.9788271,16.0983637 C22.3466285,17.3497942 21.6464191,18.4744807 20.8781778,19.4724569 C20.1099365,20.4704331 19.2856899,21.3020674 18.4054134,21.9673849 C17.5251369,22.6327024 16.6208665,23.0287187 15.6925749,23.1554459 C14.9243336,23.2663321 14.2201229,23.262372 13.5799218,23.1435653 C12.9397207,23.0247586 12.4395711,22.7871488 12.079458,22.4307287 C11.7193449,22.0743086 11.5432923,21.6070093 11.5512948,21.0288167 C11.5592973,20.4506242 11.8273775,19.7575955 12.3555434,18.94971 C12.4035585,18.8863465 12.4715788,18.8586253 12.5596065,18.8665458 C12.6476341,18.8744662 12.7316592,18.9101077 12.8116844,18.9734713 C12.8917095,19.0368348 12.9397239,19.1081178 12.9557289,19.1873222 C12.9717339,19.2665267 12.9477267,19.3378096 12.8837066,19.4011732 C12.531596,19.8605591 12.307529,20.2644958 12.2114988,20.6129954 C12.1154687,20.961495 12.1154687,21.2545471 12.2114988,21.4921605 C12.307529,21.7297739 12.4795805,21.9198618 12.7276584,22.0624298 C12.9757363,22.2049978 13.2758261,22.3079621 13.6279367,22.3713256 C14.2201227,22.466371 14.8443094,22.2604425 15.5005155,21.7535339 C16.1567216,21.2466254 16.8129179,20.5417163 17.469124,19.6387854 C18.1253301,18.7358545 18.7615204,17.6943315 19.377714,16.514185 C19.9939075,15.3340386 20.5620775,14.1143082 21.0822409,12.8549573 C21.6024042,11.5956063 22.0585407,10.3441946 22.4506638,9.10068458 C22.842787,7.85717455 23.1348744,6.73644824 23.3269347,5.73847204 C23.518995,4.74049583 23.5950178,3.90886147 23.5550052,3.243544 C23.5149926,2.57822652 23.3269364,2.19013049 22.9908308,2.07924424 C22.6707303,1.968358 22.3066214,2.0554816 21.8984932,2.34061766 C21.490365,2.62575372 21.0822429,2.99008877 20.6741147,3.43363375 C20.2659865,3.87717873 19.889874,4.33259755 19.5457659,4.79990387 C19.2016578,5.26721019 18.9255753,5.62758508 18.7175099,5.88103935 C18.6374848,6.05528917 18.4814381,6.38794291 18.2493652,6.87901057 C18.0172923,7.37007822 17.7492121,7.94826212 17.4451166,8.61357959 C17.1410211,9.27889706 16.8129229,9.98776635 16.4608123,10.7402087 C16.1087017,11.4926511 15.7726012,12.2015204 15.4525007,12.8668379 C15.1324001,13.5321553 14.8523163,14.1182596 14.6122409,14.6251681 C14.3721655,15.1320767 14.2121177,15.4726507 14.1320925,15.6469005 L14.6002372,15.6469005 C14.6562548,15.6469005 14.7162728,15.6508607 14.7802929,15.6587811 L15.0683819,15.694423 C15.1644121,15.694423 15.244436,15.7300644 15.3084561,15.8013485 C15.3724762,15.8726325 15.4124882,15.9478756 15.4284932,16.02708 C15.4605033,16.1062845 15.4484997,16.1736073 15.3924821,16.2290504 C15.3364645,16.2844935 15.2604418,16.3042944 15.1644116,16.2884535 C15.0043613,16.2884535 14.876323,16.2844933 14.7802929,16.2765729 L14.4922038,16.2528116 C14.3961737,16.2448912 14.3001449,16.240931 14.2041148,16.240931 L13.819996,16.240931 C13.0837648,17.6349295 12.2715218,18.7952575 11.3832428,19.7219497 C10.4949638,20.6486419 9.58669214,21.3812721 8.65840056,21.9198625 C7.73010898,22.4584528 6.81383492,22.826748 5.90955088,23.0247592 C5.00526684,23.2227703 4.1770191,23.2900931 3.42478282,23.2267295 C2.67254654,23.163366 2.02035146,22.9891188 1.46817802,22.7039827 C0.916004581,22.4188466 0.527888491,22.0624319 0.30381811,21.6347278 C0.12776281,21.3020691 0.0277328902,20.9258536 0.00372534933,20.5060699 C-0.0202821916,20.0862863 0.0717453347,19.6625488 0.279810689,19.2348447 C0.487876043,18.8071406 0.835980165,18.3913234 1.3241335,17.9873807 C1.81228683,17.5834379 2.4684831,17.2151427 3.29274201,16.8824839 C4.11700091,16.5498252 5.13730609,16.2726138 6.35368816,16.0508413 C7.57007023,15.8290688 9.01850347,15.6944232 10.6990313,15.6469005 C11.3392324,14.3954701 11.9754227,13.0569347 12.6076213,11.6312545 C13.2398199,10.2055742 13.8680078,8.83139738 14.4922038,7.50868288 C15.1163999,6.18596839 15.7325842,4.97811848 16.3407752,3.88509692 C16.9489663,2.79207536 17.5411434,1.960441 18.1173244,1.39016888 C18.1333294,1.3584871 18.3013797,1.3466066 18.6214802,1.35452705 C18.9415808,1.3624475 19.2856837,1.37432799 19.6537993,1.39016888 C20.0219149,1.40600977 20.3540143,1.42581059 20.6501073,1.44957193 L21.0942446,1.48521376 Z M10.3629274,16.2646922 C8.12222363,16.3755785 6.32968746,16.629029 4.98526517,17.0250513 C3.64084289,17.4210736 2.6245389,17.8804525 1.93632273,18.403202 C1.24810656,18.9259514 0.835983286,19.4645337 0.699940554,20.0189649 C0.563897822,20.5733961 0.583903806,21.0565361 0.759959106,21.4683993 C0.904004351,21.8168989 1.15607975,22.0980705 1.51619286,22.3119226 C1.87630598,22.5257746 2.30443403,22.6445795 2.80058988,22.6683409 C3.29674572,22.6921022 3.84490968,22.6010185 4.44509821,22.3950869 C5.04528673,22.1891553 5.67747582,21.8367007 6.34168445,21.3377126 C7.00589308,20.8387245 7.67809415,20.173417 8.3583078,19.3417702 C9.03852146,18.5101233 9.70672133,17.4844409 10.3629274,16.2646922 Z M32.0776396,10.063014 C31.9335944,10.2372638 31.7375357,10.558037 31.4894578,11.0253434 C31.2413799,11.4926497 30.9813021,12.0391523 30.7092166,12.6648675 C30.4371311,13.2905827 30.1570474,13.9598504 29.8689569,14.6726905 C29.5808664,15.3855307 29.3327922,16.0745992 29.1247268,16.7399166 C28.8366363,17.5794839 28.6765885,18.2170703 28.6445784,18.6526948 C28.6125684,19.0883193 28.6645839,19.3694909 28.8006267,19.4962181 C28.9366694,19.6229452 29.1447316,19.6150249 29.4248196,19.4724569 C29.7049076,19.3298888 30.0210021,19.1081197 30.3731127,18.8071427 C30.7252233,18.5061658 31.0973346,18.1378706 31.4894578,17.702246 C31.881581,17.2666215 32.2536923,16.819123 32.6058029,16.3597371 C32.8778883,16.0112375 33.1259625,15.6746236 33.3500329,15.3498853 C33.5741033,15.025147 33.7701619,14.7320949 33.9382147,14.4707202 C34.1062675,14.2093455 34.238307,13.9954966 34.3343372,13.8291673 C34.4303673,13.6628379 34.4943865,13.5638338 34.5263965,13.532152 C34.6384317,13.389584 34.7544664,13.3697832 34.8745041,13.472749 C34.9945418,13.5757148 35.0465574,13.6588782 35.0305524,13.7222418 C34.790477,14.0707414 34.4903872,14.5142797 34.1302741,15.0528701 C33.770161,15.5914604 33.3660401,16.1538036 32.9178993,16.7399166 C32.4697586,17.3260296 31.9936161,17.9002534 31.4894578,18.462605 C30.9852994,19.0249567 30.4731462,19.5080967 29.9529829,19.9120394 C29.4328195,20.3159822 28.9126639,20.601114 28.3925005,20.7674433 C27.8723371,20.9337727 27.3721875,20.9139719 26.8920367,20.7080403 C26.3958809,20.5021087 26.0797863,20.1140126 25.9437436,19.5437405 C25.8077008,18.9734684 25.7876949,18.3200414 25.883725,17.5834399 C25.9797552,16.8468384 26.159809,16.0666862 26.423892,15.2429598 C26.6879749,14.4192334 26.9720599,13.6390812 27.2761554,12.9024797 C27.5802509,12.1658782 27.8723383,11.5124512 28.1524263,10.9421791 C28.4325143,10.371907 28.6365753,9.97589061 28.7646155,9.75411812 C28.8126306,9.69075455 28.9406689,9.64323259 29.1487343,9.6115508 C29.3567996,9.57986902 29.5928702,9.56402836 29.8569532,9.56402836 C30.1210361,9.56402836 30.3931175,9.57590885 30.6732055,9.59967019 C30.9532935,9.62343153 31.2093701,9.659073 31.4414429,9.70659568 C31.6735158,9.75411836 31.8535697,9.80956065 31.9816099,9.87292422 C32.1096501,9.93628778 32.1416597,9.9996504 32.0776396,10.063014 Z M30.7812389,7.56808593 C30.5251584,7.44135879 30.3811154,7.23147012 30.3491053,6.93841362 C30.3170952,6.64535711 30.3571072,6.32854402 30.4691424,5.98796484 C30.5811776,5.64738566 30.7532291,5.29889126 30.985302,4.94247118 C31.2173748,4.58605111 31.4694502,4.27319818 31.7415357,4.00390302 C32.0136212,3.73460785 32.2857026,3.53263951 32.557788,3.39799192 C32.8298735,3.26334434 33.0699453,3.24354352 33.2780106,3.33858887 C33.4380609,3.41779333 33.5380908,3.60392102 33.5781034,3.89697753 C33.618116,4.19003403 33.6061124,4.52268778 33.5420923,4.89494875 C33.4780722,5.26720971 33.3620375,5.64738542 33.1939847,6.03548728 C33.0259319,6.42358914 32.8218708,6.76020305 32.5817954,7.0453391 C32.34172,7.33047516 32.0696386,7.53244351 31.7655431,7.6512502 C31.4614476,7.77005689 31.1333495,7.74233575 30.7812389,7.56808593 Z M39.3638918,18.0467837 C39.0437913,18.4111242 38.7036896,18.7794194 38.3435764,19.1516804 C37.9834633,19.5239414 37.6153532,19.852635 37.2392351,20.137771 C36.8631169,20.4229071 36.4910056,20.6407161 36.12289,20.7912045 C35.7547744,20.941693 35.4026691,20.9773345 35.0665635,20.89813 C34.6024177,20.7714029 34.2703184,20.4981516 34.0702555,20.078368 C33.8701927,19.6585843 33.7701628,19.1477232 33.7701628,18.5457693 C33.7701628,17.9438154 33.8621903,17.2864282 34.0462481,16.5735881 C34.2303059,15.8607479 34.4783801,15.1518787 34.7904782,14.446959 C35.1025762,13.7420393 35.4666851,13.0688114 35.8828158,12.4272553 C36.2989465,11.7856992 36.735077,11.2391966 37.1912202,10.7877312 C37.6473635,10.3362657 38.1115023,10.0154925 38.5836506,9.82540178 C39.055799,9.63531107 39.5159366,9.62739074 39.9640773,9.80164056 C40.1721427,9.88084502 40.3642001,10.0075703 40.5402554,10.1818201 C40.7163107,10.3560699 40.884361,10.5540781 41.0444113,10.7758506 C41.2044616,10.997623 41.3485046,11.2312727 41.4765449,11.4768065 C41.6045851,11.7223404 41.7166186,11.9639103 41.8126488,12.2015237 C42.0687292,11.6787743 42.308801,11.211475 42.5328714,10.7996118 C42.7569418,10.3877486 42.9489992,10.0471745 43.1090495,9.77787934 C43.1890746,9.66699309 43.4131416,9.59967031 43.7812573,9.57590897 C44.1493729,9.55214763 44.5294866,9.56402813 44.9216098,9.6115508 C45.3137329,9.65907348 45.6538346,9.72639626 45.9419251,9.81352117 C46.2300156,9.90064607 46.3340467,9.99965017 46.2540216,10.1105364 C46.1900015,10.1739 46.057962,10.4194301 45.8578992,10.8471342 C45.6578363,11.2748383 45.4097621,11.8055002 45.1136691,12.4391359 C44.8175761,13.0727716 44.4974804,13.7816409 44.1533723,14.5657651 C43.8092642,15.3498892 43.4691625,16.1340016 43.1330569,16.9181258 C42.7969513,17.7022499 42.4888592,18.4507209 42.2087712,19.163561 C41.9286832,19.8764012 41.700615,20.478346 41.5245597,20.9694137 C41.3485044,21.4763222 41.2364709,21.8644183 41.1884558,22.1337134 C41.1404407,22.4030086 41.1484431,22.5653753 41.2124632,22.6208184 C41.2764833,22.6762616 41.392518,22.6485404 41.5605708,22.5376542 C41.7286236,22.4267679 41.9326847,22.2446004 42.1727601,21.9911461 C42.5088656,21.6584874 42.8729745,21.2268296 43.2650977,20.6961597 C43.6572209,20.1654898 44.0533394,19.6031465 44.453465,19.0091131 C44.8535907,18.4150796 45.2377056,17.8131348 45.6058212,17.2032604 C45.9739369,16.5933861 46.3100374,16.035003 46.6141329,15.5280944 C46.9182284,15.0211859 47.1663026,14.5974484 47.358363,14.2568692 C47.5504233,13.91629 47.6624568,13.7143217 47.6944669,13.6509581 C47.7264769,13.5875945 47.7784925,13.5479929 47.8505151,13.532152 C47.9225377,13.5163111 47.9905581,13.5242314 48.0545782,13.5559132 C48.1185983,13.587595 48.1586102,13.6390771 48.1746153,13.7103612 C48.1906203,13.7816452 48.1826179,13.848968 48.1506079,13.9123315 C48.0545777,14.0548995 47.8825262,14.3479517 47.6344483,14.7914966 C47.3863704,15.2350416 47.0822794,15.7577832 46.7221663,16.3597371 C46.3620532,16.961691 45.9579323,17.6111579 45.5097916,18.3081571 C45.0616508,19.0051564 44.5935108,19.6902647 44.1053574,20.3635026 C43.6172041,21.0367405 43.1210557,21.6664065 42.6168973,22.2525195 C42.112739,22.8386325 41.6285942,23.3178123 41.1644484,23.6900733 C40.7003026,24.0623343 40.260171,24.2920238 39.8440402,24.3791487 C39.4279095,24.4662736 39.0678018,24.3514288 38.7637063,24.034611 C38.587651,23.8445203 38.4916223,23.5118665 38.4756173,23.0366398 C38.4596122,22.561413 38.495623,22.0347113 38.5836506,21.4565187 C38.6716783,20.8783261 38.787713,20.2843016 38.9317583,19.6744272 C39.0758035,19.0645529 39.2198466,18.5220105 39.3638918,18.0467837 Z M41.5005523,12.8430766 C41.4365322,12.6846677 41.372513,12.5302213 41.3084929,12.3797329 C41.2444728,12.2292444 41.1724513,12.0827183 41.0924261,11.9401503 C40.8843608,11.6074916 40.6322854,11.496607 40.3361924,11.6074932 C40.0400994,11.7183795 39.7320072,11.9757901 39.4119067,12.3797329 C39.0918061,12.7836756 38.7677092,13.2826562 38.4396061,13.8766897 C38.1115031,14.4707231 37.8154145,15.0845485 37.5513316,15.7181842 C37.2872486,16.3518199 37.071184,16.9577249 36.9031312,17.5359175 C36.7350784,18.11411 36.6390497,18.5853695 36.6150421,18.94971 C36.5910346,19.3140506 36.6590549,19.5318596 36.8191052,19.6031436 C36.9791555,19.6744276 37.2592393,19.5041406 37.6593649,19.0922774 C38.0594906,18.7279368 38.4276007,18.343801 38.7637063,17.9398582 C39.0998119,17.5359155 39.4519172,17.1280186 39.8200328,16.7161554 C40.0601082,16.0508379 40.3281884,15.3894906 40.6242814,14.7320936 C40.9203744,14.0746966 41.2124618,13.4450305 41.5005523,12.8430766 Z M50.6353759,17.2389022 C51.0355016,16.6686301 51.4556273,16.0548048 51.8957655,15.3974077 C52.3359038,14.7400107 52.7840378,14.094504 53.2401811,13.4608683 C53.6963244,12.8272327 54.156462,12.229248 54.6206078,11.6668963 C55.0847536,11.1045446 55.5528936,10.6332851 56.0250419,10.2531037 C56.4971902,9.87292231 56.961329,9.61551168 57.4174723,9.4808641 C57.8736156,9.34621651 58.3177484,9.38185798 58.7498842,9.58778958 C59.0379746,9.73035761 59.1980225,10.0036089 59.2300326,10.4075517 C59.2620426,10.8114944 59.2140283,11.2985945 59.085988,11.8688666 C58.9579478,12.4391388 58.7738928,13.0529641 58.5338174,13.7103612 C58.293742,14.3677582 58.0416666,15.017225 57.7775836,15.6587811 C57.5135007,16.3003373 57.2614253,16.9062423 57.0213499,17.4765144 C56.7812744,18.0467866 56.5932182,18.518046 56.4571755,18.890307 C56.3211327,19.262568 56.265116,19.5120583 56.2891235,19.6387854 C56.3131311,19.7655125 56.4611753,19.7100702 56.7332608,19.4724569 C57.1173815,19.1397981 57.5094987,18.7398216 57.9096244,18.2725153 C58.3097501,17.805209 58.7018674,17.3339495 59.085988,16.8587227 C59.5341288,16.3042915 59.9982676,15.7181873 60.4784185,15.1003925 C60.9585693,14.4825977 61.358689,13.9202545 61.6787895,13.4133459 C61.7588146,13.2707779 61.8708481,13.2390966 62.0148934,13.318301 C62.0949185,13.3499828 62.1389317,13.4014649 62.1469342,13.472749 C62.1549367,13.544033 62.1429331,13.6113558 62.1109231,13.6747193 C62.046903,13.7856056 61.9308683,13.9638129 61.7628155,14.2093468 C61.5947627,14.4548806 61.3907017,14.7360522 61.1506262,15.0528701 C60.9105508,15.3696879 60.6544742,15.710262 60.3823888,16.0746025 C60.1103033,16.438943 59.8302195,16.8032781 59.542129,17.1676186 C59.1900184,17.5953227 58.8259095,18.0269805 58.4497914,18.462605 C58.0736733,18.8982296 57.6975608,19.2863256 57.3214426,19.6269048 C56.9453245,19.967484 56.5772144,20.2526158 56.2171013,20.4823087 C55.8569881,20.7120016 55.5248888,20.842687 55.2207933,20.8743688 C54.6126023,20.9218915 54.1764718,20.8149671 53.9123889,20.5535923 C53.6483059,20.2922176 53.5042628,19.9278826 53.4802553,19.4605763 C53.4562477,18.9932699 53.5202669,18.4586478 53.6723146,17.8566939 C53.8243624,17.25474 54.0164199,16.6369545 54.2484927,16.0033188 C54.4805656,15.3696831 54.7286398,14.7558578 54.9927228,14.1618243 C55.2568057,13.5677909 55.4768716,13.0490094 55.6529269,12.6054645 C55.8289822,12.1619195 55.9410157,11.8213454 55.9890308,11.583732 C56.0370458,11.3461186 55.9650243,11.2748357 55.772964,11.369881 C55.4048483,11.7342216 54.9847227,12.2450827 54.5125744,12.9024797 C54.0404261,13.5598767 53.5442777,14.2964672 53.0241143,15.1122731 C52.5039509,15.928079 51.9877965,16.7795142 51.4756356,17.6666042 C50.9634748,18.5536941 50.4873324,19.397209 50.0471941,20.1971741 C49.6070559,20.9971391 49.222941,21.7139287 48.8948379,22.3475644 C48.5667348,22.9812001 48.3306642,23.4564197 48.186619,23.7732376 C48.0745838,23.9950101 47.8945299,24.1415361 47.646452,24.2128201 C47.3983741,24.2841042 47.1302939,24.327666 46.8422034,24.3435068 C46.5541129,24.3593477 46.270028,24.3514274 45.98994,24.3197456 C45.709852,24.2880638 45.4737814,24.2722232 45.2817211,24.2722232 C45.3297361,23.3376106 45.5377984,22.3198485 45.905914,21.2189065 C46.2740296,20.1179645 46.6941553,18.9972382 47.1663036,17.8566939 C47.6384519,16.7161497 48.1025907,15.5875031 48.558734,14.4707202 C49.0148773,13.3539373 49.3629814,12.3203346 49.6030568,11.369881 C49.7791121,11.2589948 49.9991779,11.1639509 50.2632609,11.0847464 C50.5273438,11.0055419 50.795424,10.9500997 51.0675095,10.9184179 C51.339595,10.8867361 51.5916703,10.8827759 51.8237432,10.9065373 C52.0558161,10.9302986 52.2198652,10.9897011 52.3158954,11.0847464 C52.5239607,11.3065189 52.6119871,11.599571 52.579977,11.9639115 C52.5479669,12.328252 52.4399346,12.7678302 52.2558768,13.2826592 C52.071819,13.7974882 51.8317472,14.3835924 51.5356542,15.0409894 C51.2395612,15.6983865 50.9394714,16.4310167 50.6353759,17.2389022 Z M66.4442625,18.0467837 C66.124162,18.4111242 65.7840603,18.7794194 65.4239472,19.1516804 C65.063834,19.5239414 64.6957239,19.852635 64.3196058,20.137771 C63.9434877,20.4229071 63.5713764,20.6407161 63.2032607,20.7912045 C62.8351451,20.941693 62.4830398,20.9773345 62.1469342,20.89813 C61.6827884,20.7714029 61.3506891,20.4981516 61.1506262,20.078368 C60.9505634,19.6585843 60.8505335,19.1477232 60.8505335,18.5457693 C60.8505335,17.9438154 60.942561,17.2864282 61.1266188,16.5735881 C61.3106766,15.8607479 61.5587508,15.1518787 61.8708489,14.446959 C62.1829469,13.7420393 62.5470558,13.0688114 62.9631865,12.4272553 C63.3793172,11.7856992 63.8154477,11.2391966 64.271591,10.7877312 C64.7277342,10.3362657 65.1918731,10.0154925 65.6640214,9.82540178 C66.1361697,9.63531107 66.5963073,9.62739074 67.0444481,9.80164056 C67.2525134,9.88084502 67.4445709,10.0075703 67.6206262,10.1818201 C67.7966815,10.3560699 67.9647317,10.5540781 68.124782,10.7758506 C68.2848323,10.997623 68.4288754,11.2312727 68.5569156,11.4768065 C68.6849558,11.7223404 68.7969893,11.9639103 68.8930195,12.2015237 C69.1490999,11.6787743 69.3891717,11.211475 69.6132421,10.7996118 C69.8373125,10.3877486 70.0293699,10.0471745 70.1894202,9.77787934 C70.2694453,9.66699309 70.4935123,9.59967031 70.861628,9.57590897 C71.2297436,9.55214763 71.6098573,9.56402813 72.0019805,9.6115508 C72.3941036,9.65907348 72.7342054,9.72639626 73.0222959,9.81352117 C73.3103863,9.90064607 73.4144175,9.99965017 73.3343923,10.1105364 C73.2703722,10.1739 73.1383327,10.4194301 72.9382699,10.8471342 C72.738207,11.2748383 72.4901328,11.8055002 72.1940398,12.4391359 C71.8979468,13.0727716 71.5778511,13.7816409 71.233743,14.5657651 C70.8896349,15.3498892 70.5495332,16.1340016 70.2134276,16.9181258 C69.877322,17.7022499 69.5692299,18.4507209 69.2891419,19.163561 C69.0090539,19.8764012 68.7809857,20.478346 68.6049304,20.9694137 C68.4288751,21.4763222 68.3168416,21.8644183 68.2688265,22.1337134 C68.2208114,22.4030086 68.2288138,22.5653753 68.2928339,22.6208184 C68.3568541,22.6762616 68.4728888,22.6485404 68.6409415,22.5376542 C68.8089943,22.4267679 69.0130554,22.2446004 69.2531308,21.9911461 C69.5892364,21.6584874 69.9533453,21.2268296 70.3454684,20.6961597 C70.7375916,20.1654898 71.1337101,19.6031465 71.5338358,19.0091131 C71.9339614,18.4150796 72.3180763,17.8131348 72.686192,17.2032604 C73.0543076,16.5933861 73.3904081,16.035003 73.6945036,15.5280944 C73.9985992,15.0211859 74.2466734,14.5974484 74.4387337,14.2568692 C74.630794,13.91629 74.7428275,13.7143217 74.7748376,13.6509581 C74.8068476,13.5875945 74.8588632,13.5479929 74.9308858,13.532152 C75.0029084,13.5163111 75.0709288,13.5242314 75.1349489,13.5559132 C75.198969,13.587595 75.238981,13.6390771 75.254986,13.7103612 C75.270991,13.7816452 75.2629886,13.848968 75.2309786,13.9123315 C75.1349484,14.0548995 74.9628969,14.3479517 74.714819,14.7914966 C74.4667411,15.2350416 74.1626501,15.7577832 73.802537,16.3597371 C73.4424239,16.961691 73.038303,17.6111579 72.5901623,18.3081571 C72.1420215,19.0051564 71.6738815,19.6902647 71.1857282,20.3635026 C70.6975748,21.0367405 70.2014264,21.6664065 69.6972681,22.2525195 C69.1931097,22.8386325 68.7089649,23.3178123 68.2448191,23.6900733 C67.7806733,24.0623343 67.3405417,24.2920238 66.924411,24.3791487 C66.5082802,24.4662736 66.1481725,24.3514288 65.844077,24.034611 C65.6680217,23.8445203 65.571993,23.5118665 65.555988,23.0366398 C65.5399829,22.561413 65.5759937,22.0347113 65.6640214,21.4565187 C65.752049,20.8783261 65.8680837,20.2843016 66.012129,19.6744272 C66.1561742,19.0645529 66.3002173,18.5220105 66.4442625,18.0467837 Z M68.580923,12.8430766 C68.5169029,12.6846677 68.4528837,12.5302213 68.3888636,12.3797329 C68.3248435,12.2292444 68.252822,12.0827183 68.1727968,11.9401503 C67.9647315,11.6074916 67.7126561,11.496607 67.4165631,11.6074932 C67.1204701,11.7183795 66.8123779,11.9757901 66.4922774,12.3797329 C66.1721768,12.7836756 65.8480799,13.2826562 65.5199768,13.8766897 C65.1918738,14.4707231 64.8957852,15.0845485 64.6317023,15.7181842 C64.3676193,16.3518199 64.1515547,16.9577249 63.9835019,17.5359175 C63.8154491,18.11411 63.7194204,18.5853695 63.6954129,18.94971 C63.6714053,19.3140506 63.7394257,19.5318596 63.8994759,19.6031436 C64.0595262,19.6744276 64.33961,19.5041406 64.7397357,19.0922774 C65.1398613,18.7279368 65.5079714,18.343801 65.844077,17.9398582 C66.1801826,17.5359155 66.5322879,17.1280186 66.9004035,16.7161554 C67.1404789,16.0508379 67.4085591,15.3894906 67.7046521,14.7320936 C68.0007451,14.0746966 68.2928325,13.4450305 68.580923,12.8430766 Z M99.1663772,1.48521376 C99.0223319,1.67530446 98.902296,1.83767117 98.8062658,1.97231876 C98.7102357,2.10696634 98.6182081,2.24953223 98.5301805,2.40002071 C98.4421528,2.55050918 98.3501253,2.72079622 98.2540952,2.91088692 C98.158065,3.10097763 98.0460315,3.34650777 97.9179913,3.64748473 C98.2701019,3.25146242 98.5901976,2.89504769 98.8782881,2.57822985 C99.1663786,2.26141201 99.43846,2.00004121 99.6945404,1.79410961 C99.9506208,1.58817801 100.206697,1.44165196 100.462778,1.35452705 C100.718858,1.26740214 101.006944,1.25552165 101.327045,1.31888522 C102.079281,1.44561236 102.651452,1.84558889 103.043576,2.5188268 C103.435699,3.19206472 103.671769,4.03161941 103.751795,5.03751606 C103.83182,6.04341271 103.771802,7.17601951 103.571739,8.43537044 C103.371676,9.69472137 103.059583,10.9738542 102.635449,12.2728074 C102.211316,13.5717605 101.683158,14.8469332 101.05096,16.0983637 C100.418761,17.3497942 99.7185517,18.4744807 98.9503104,19.4724569 C98.1820691,20.4704331 97.3578225,21.3020674 96.477546,21.9673849 C95.5972695,22.6327024 94.692999,23.0287187 93.7647075,23.1554459 C92.9964662,23.2663321 92.2922555,23.262372 91.6520544,23.1435653 C91.0118533,23.0247586 90.5117037,22.7871488 90.1515906,22.4307287 C89.7914775,22.0743086 89.6154249,21.6070093 89.6234274,21.0288167 C89.6314299,20.4506242 89.8995101,19.7575955 90.427676,18.94971 C90.475691,18.8863465 90.5437114,18.8586253 90.631739,18.8665458 C90.7197667,18.8744662 90.8037918,18.9101077 90.883817,18.9734713 C90.9638421,19.0368348 91.0118565,19.1081178 91.0278615,19.1873222 C91.0438665,19.2665267 91.0198593,19.3378096 90.9558392,19.4011732 C90.6037286,19.8605591 90.3796616,20.2644958 90.2836314,20.6129954 C90.1876013,20.961495 90.1876013,21.2545471 90.2836314,21.4921605 C90.3796616,21.7297739 90.5517131,21.9198618 90.799791,22.0624298 C91.0478689,22.2049978 91.3479587,22.3079621 91.7000693,22.3713256 C92.2922553,22.466371 92.916442,22.2604425 93.5726481,21.7535339 C94.2288542,21.2466254 94.8850505,20.5417163 95.5412566,19.6387854 C96.1974627,18.7358545 96.833653,17.6943315 97.4498466,16.514185 C98.0660401,15.3340386 98.6342101,14.1143082 99.1543734,12.8549573 C99.6745368,11.5956063 100.130673,10.3441946 100.522796,9.10068458 C100.91492,7.85717455 101.207007,6.73644824 101.399067,5.73847204 C101.591128,4.74049583 101.66715,3.90886147 101.627138,3.243544 C101.587125,2.57822652 101.399069,2.19013049 101.062963,2.07924424 C100.742863,1.968358 100.378754,2.0554816 99.9706257,2.34061766 C99.5624976,2.62575372 99.1543755,2.99008877 98.7462473,3.43363375 C98.3381191,3.87717873 97.9620066,4.33259755 97.6178985,4.79990387 C97.2737904,5.26721019 96.9977078,5.62758508 96.7896425,5.88103935 C96.7096174,6.05528917 96.5535707,6.38794291 96.3214978,6.87901057 C96.0894249,7.37007822 95.8213447,7.94826212 95.5172492,8.61357959 C95.2131537,9.27889706 94.8850555,9.98776635 94.5329449,10.7402087 C94.1808343,11.4926511 93.8447338,12.2015204 93.5246333,12.8668379 C93.2045327,13.5321553 92.9244489,14.1182596 92.6843735,14.6251681 C92.4442981,15.1320767 92.2842502,15.4726507 92.2042251,15.6469005 L92.6723698,15.6469005 C92.7283874,15.6469005 92.7884054,15.6508607 92.8524255,15.6587811 L93.1405145,15.694423 C93.2365447,15.694423 93.3165686,15.7300644 93.3805887,15.8013485 C93.4446088,15.8726325 93.4846208,15.9478756 93.5006258,16.02708 C93.5326359,16.1062845 93.5206323,16.1736073 93.4646147,16.2290504 C93.4085971,16.2844935 93.3325744,16.3042944 93.2365442,16.2884535 C93.0764939,16.2884535 92.9484556,16.2844933 92.8524255,16.2765729 L92.5643364,16.2528116 C92.4683063,16.2448912 92.3722775,16.240931 92.2762474,16.240931 L91.8921286,16.240931 C91.1558974,17.6349295 90.3436544,18.7952575 89.4553754,19.7219497 C88.5670964,20.6486419 87.6588247,21.3812721 86.7305332,21.9198625 C85.8022416,22.4584528 84.8859675,22.826748 83.9816835,23.0247592 C83.0773994,23.2227703 82.2491517,23.2900931 81.4969154,23.2267295 C80.7446791,23.163366 80.0924841,22.9891188 79.5403106,22.7039827 C78.9881372,22.4188466 78.6000211,22.0624319 78.3759507,21.6347278 C78.1998954,21.3020691 78.0998655,20.9258536 78.0758579,20.5060699 C78.0518504,20.0862863 78.1438779,19.6625488 78.3519433,19.2348447 C78.5600086,18.8071406 78.9081128,18.3913234 79.3962661,17.9873807 C79.8844194,17.5834379 80.5406157,17.2151427 81.3648746,16.8824839 C82.1891335,16.5498252 83.2094387,16.2726138 84.4258208,16.0508413 C85.6422028,15.8290688 87.0906361,15.6944232 88.7711639,15.6469005 C89.411365,14.3954701 90.0475553,13.0569347 90.6797539,11.6312545 C91.3119525,10.2055742 91.9401404,8.83139738 92.5643364,7.50868288 C93.1885325,6.18596839 93.8047168,4.97811848 94.4129078,3.88509692 C95.0210989,2.79207536 95.613276,1.960441 96.189457,1.39016888 C96.205462,1.3584871 96.3735123,1.3466066 96.6936128,1.35452705 C97.0137133,1.3624475 97.3578163,1.37432799 97.7259319,1.39016888 C98.0940475,1.40600977 98.4261469,1.42581059 98.7222399,1.44957193 L99.1663772,1.48521376 Z M88.43506,16.2646922 C86.1943562,16.3755785 84.4018201,16.629029 83.0573978,17.0250513 C81.7129755,17.4210736 80.6966715,17.8804525 80.0084553,18.403202 C79.3202391,18.9259514 78.9081159,19.4645337 78.7720731,20.0189649 C78.6360304,20.5733961 78.6560364,21.0565361 78.8320917,21.4683993 C78.9761369,21.8168989 79.2282123,22.0980705 79.5883255,22.3119226 C79.9484386,22.5257746 80.3765666,22.6445795 80.8727225,22.6683409 C81.3688783,22.6921022 81.9170423,22.6010185 82.5172308,22.3950869 C83.1174193,22.1891553 83.7496084,21.8367007 84.413817,21.3377126 C85.0780257,20.8387245 85.7502267,20.173417 86.4304404,19.3417702 C87.1106541,18.5101233 87.7788539,17.4844409 88.43506,16.2646922 Z M109.021423,18.0467837 C108.701323,18.4111242 108.361221,18.7794194 108.001108,19.1516804 C107.640995,19.5239414 107.272885,19.852635 106.896767,20.137771 C106.520649,20.4229071 106.148537,20.6407161 105.780422,20.7912045 C105.412306,20.941693 105.060201,20.9773345 104.724095,20.89813 C104.259949,20.7714029 103.92785,20.4981516 103.727787,20.078368 C103.527724,19.6585843 103.427694,19.1477232 103.427694,18.5457693 C103.427694,17.9438154 103.519722,17.2864282 103.70378,16.5735881 C103.887838,15.8607479 104.135912,15.1518787 104.44801,14.446959 C104.760108,13.7420393 105.124217,13.0688114 105.540347,12.4272553 C105.956478,11.7856992 106.392609,11.2391966 106.848752,10.7877312 C107.304895,10.3362657 107.769034,10.0154925 108.241182,9.82540178 C108.713331,9.63531107 109.173468,9.62739074 109.621609,9.80164056 C109.829674,9.88084502 110.021732,10.0075703 110.197787,10.1818201 C110.373842,10.3560699 110.541893,10.5540781 110.701943,10.7758506 C110.861993,10.997623 111.006036,11.2312727 111.134076,11.4768065 C111.262117,11.7223404 111.37415,11.9639103 111.47018,12.2015237 C111.726261,11.6787743 111.966333,11.211475 112.190403,10.7996118 C112.414473,10.3877486 112.606531,10.0471745 112.766581,9.77787934 C112.846606,9.66699309 113.070673,9.59967031 113.438789,9.57590897 C113.806904,9.55214763 114.187018,9.56402813 114.579141,9.6115508 C114.971265,9.65907348 115.311366,9.72639626 115.599457,9.81352117 C115.887547,9.90064607 115.991578,9.99965017 115.911553,10.1105364 C115.847533,10.1739 115.715494,10.4194301 115.515431,10.8471342 C115.315368,11.2748383 115.067294,11.8055002 114.771201,12.4391359 C114.475108,13.0727716 114.155012,13.7816409 113.810904,14.5657651 C113.466796,15.3498892 113.126694,16.1340016 112.790588,16.9181258 C112.454483,17.7022499 112.146391,18.4507209 111.866303,19.163561 C111.586215,19.8764012 111.358147,20.478346 111.182091,20.9694137 C111.006036,21.4763222 110.894002,21.8644183 110.845987,22.1337134 C110.797972,22.4030086 110.805975,22.5653753 110.869995,22.6208184 C110.934015,22.6762616 111.05005,22.6485404 111.218102,22.5376542 C111.386155,22.4267679 111.590216,22.2446004 111.830292,21.9911461 C112.166397,21.6584874 112.530506,21.2268296 112.922629,20.6961597 C113.314752,20.1654898 113.710871,19.6031465 114.110997,19.0091131 C114.511122,18.4150796 114.895237,17.8131348 115.263353,17.2032604 C115.631468,16.5933861 115.967569,16.035003 116.271665,15.5280944 C116.57576,15.0211859 116.823834,14.5974484 117.015895,14.2568692 C117.207955,13.91629 117.319988,13.7143217 117.351998,13.6509581 C117.384008,13.5875945 117.436024,13.5479929 117.508047,13.532152 C117.580069,13.5163111 117.64809,13.5242314 117.71211,13.5559132 C117.77613,13.587595 117.816142,13.6390771 117.832147,13.7103612 C117.848152,13.7816452 117.840149,13.848968 117.808139,13.9123315 C117.712109,14.0548995 117.540058,14.3479517 117.29198,14.7914966 C117.043902,15.2350416 116.739811,15.7577832 116.379698,16.3597371 C116.019585,16.961691 115.615464,17.6111579 115.167323,18.3081571 C114.719182,19.0051564 114.251042,19.6902647 113.762889,20.3635026 C113.274736,21.0367405 112.778587,21.6664065 112.274429,22.2525195 C111.770271,22.8386325 111.286126,23.3178123 110.82198,23.6900733 C110.357834,24.0623343 109.917703,24.2920238 109.501572,24.3791487 C109.085441,24.4662736 108.725333,24.3514288 108.421238,24.034611 C108.245183,23.8445203 108.149154,23.5118665 108.133149,23.0366398 C108.117144,22.561413 108.153155,22.0347113 108.241182,21.4565187 C108.32921,20.8783261 108.445245,20.2843016 108.58929,19.6744272 C108.733335,19.0645529 108.877378,18.5220105 109.021423,18.0467837 Z M111.158084,12.8430766 C111.094064,12.6846677 111.030045,12.5302213 110.966024,12.3797329 C110.902004,12.2292444 110.829983,12.0827183 110.749958,11.9401503 C110.541892,11.6074916 110.289817,11.496607 109.993724,11.6074932 C109.697631,11.7183795 109.389539,11.9757901 109.069438,12.3797329 C108.749338,12.7836756 108.425241,13.2826562 108.097138,13.8766897 C107.769035,14.4707231 107.472946,15.0845485 107.208863,15.7181842 C106.94478,16.3518199 106.728716,16.9577249 106.560663,17.5359175 C106.39261,18.11411 106.296581,18.5853695 106.272574,18.94971 C106.248566,19.3140506 106.316587,19.5318596 106.476637,19.6031436 C106.636687,19.6744276 106.916771,19.5041406 107.316897,19.0922774 C107.717022,18.7279368 108.085132,18.343801 108.421238,17.9398582 C108.757343,17.5359155 109.109449,17.1280186 109.477564,16.7161554 C109.71764,16.0508379 109.98572,15.3894906 110.281813,14.7320936 C110.577906,14.0746966 110.869993,13.4450305 111.158084,12.8430766 Z M126.150718,3.43363375 C126.086698,3.54452 126.002673,3.72668752 125.89864,3.9801418 C125.794608,4.23359607 125.674572,4.52664818 125.538529,4.85930692 C125.402486,5.19196565 125.24644,5.56026087 125.070384,5.96420362 C124.894329,6.36814637 124.710274,6.77604322 124.518214,7.18790642 C125.190425,7.36215623 125.806609,7.33443509 126.366785,7.10474215 C126.926961,6.87504922 127.327081,6.49091334 127.567156,5.95232301 C127.583161,5.82559587 127.67919,5.76223325 127.855245,5.76223325 C127.99929,5.88896039 128.063309,6.0077653 128.047304,6.11865155 C127.887254,6.49883296 127.675191,6.81168589 127.411108,7.05721971 C127.147025,7.30275354 126.846935,7.48492107 126.510829,7.60372776 C126.174724,7.72253445 125.822619,7.78193691 125.454503,7.78193691 C125.086387,7.78193691 124.710275,7.72649462 124.326154,7.61560837 C124.246129,7.78985818 124.118091,8.09083062 123.942035,8.51853471 C123.76598,8.9462388 123.569922,9.45313974 123.353854,10.0392528 C123.137786,10.6253658 122.897714,11.2629521 122.633631,11.9520309 C122.369548,12.6411097 122.105469,13.3380985 121.841386,14.0430182 C121.577303,14.7479379 121.321227,15.4370064 121.073149,16.1102443 C120.825071,16.7834822 120.597003,17.3973076 120.388937,17.9517388 C120.036827,18.9180332 119.836767,19.6902652 119.788752,20.2684577 C119.740737,20.8466503 119.832764,21.1951447 120.064837,21.3139514 C120.29691,21.4327581 120.649015,21.3179133 121.121164,20.9694137 C121.593312,20.6209141 122.181488,20.0031285 122.885709,19.1160386 C123.285835,18.5932891 123.693957,18.0349061 124.110087,17.4408726 C124.526218,16.8468391 124.922337,16.2686553 125.298455,15.7063036 C125.674573,15.1439519 126.010673,14.6251705 126.306766,14.1499437 C126.602859,13.6747169 126.830928,13.2945412 126.990978,13.0094052 C127.022988,12.9302007 127.071002,12.8826788 127.135022,12.8668379 C127.199043,12.850997 127.263062,12.8668376 127.327082,12.9143603 C127.391102,12.9302012 127.431114,12.9698028 127.447119,13.0331664 C127.463124,13.09653 127.455122,13.1519723 127.423111,13.1994949 C127.183036,13.6588808 126.858939,14.2331045 126.450811,14.9221833 C126.042683,15.6112622 125.582545,16.3438924 125.070384,17.1200961 C124.558223,17.8962999 124.006058,18.6685318 123.413872,19.436815 C122.821686,20.2050983 122.221507,20.8941668 121.613316,21.5040411 C121.005125,22.1139155 120.400944,22.6010156 119.800755,22.9653561 C119.200567,23.3296966 118.636398,23.4881032 118.108232,23.4405805 C117.628081,23.4405805 117.267974,23.258413 117.027898,22.8940725 C116.787823,22.5297319 116.64378,22.0663928 116.595765,21.5040411 C116.54775,20.9416895 116.575758,20.3159836 116.679791,19.6269048 C116.783823,18.937826 116.93987,18.260638 117.147935,17.5953205 C117.420021,16.7240715 117.748119,15.7577915 118.13224,14.6964518 C118.51636,13.635112 118.900475,12.6015093 119.284596,11.5956126 C119.668716,10.589716 120.028824,9.67491817 120.36493,8.85119178 C120.701035,8.02746539 120.965114,7.40967986 121.157175,6.99781667 C120.613004,6.90277131 120.100851,6.91069164 119.6207,7.02157788 C119.140549,7.13246413 118.716422,7.46511788 118.348306,8.0195491 C118.268281,8.16211713 118.148245,8.20171877 117.988195,8.1383552 C117.924175,8.10667341 117.884163,8.05519129 117.868158,7.98390727 C117.852153,7.91262326 117.852153,7.84530047 117.868158,7.78193691 C118.092228,7.43343728 118.344304,7.15622582 118.624392,6.95029423 C118.90448,6.74436263 119.192566,6.60179674 119.488659,6.52259228 C119.784752,6.44338782 120.096845,6.40774634 120.424948,6.41566679 C120.753051,6.42358724 121.077148,6.45922871 121.397249,6.52259228 C121.78137,5.6671841 122.069456,4.94643432 122.261516,4.36032131 C122.453576,3.7742083 122.589617,3.39403259 122.669642,3.21978278 C122.701652,3.1722601 122.809685,3.13265846 122.993742,3.10097668 C123.1778,3.06929489 123.405868,3.05345424 123.677954,3.05345424 C123.950039,3.05345424 124.234124,3.06533473 124.530217,3.08909607 C124.82631,3.11285741 125.098392,3.14057855 125.34647,3.17226034 C125.594548,3.20394212 125.794607,3.24354376 125.946655,3.29106643 C126.098703,3.33858911 126.166723,3.38611107 126.150718,3.43363375 Z M128.155338,13.6034357 C128.235363,13.4450267 128.435423,13.1955364 128.755523,12.8549573 C129.075624,12.5143781 129.455738,12.1460829 129.895876,11.7500606 C130.336014,11.3540382 130.812157,10.9699024 131.324317,10.5976414 C131.836478,10.2253804 132.332627,9.92044784 132.812777,9.68283446 C132.764762,9.12840323 132.812777,8.51061771 132.956822,7.82945935 C133.100867,7.14830098 133.340939,6.53051546 133.677045,5.97608423 C134.01315,5.421653 134.437277,4.98999517 134.949438,4.68109777 C135.461599,4.37220037 136.053776,4.31279792 136.725987,4.50288863 C137.142118,4.62961576 137.430204,4.78010198 137.590254,4.95435179 C137.750304,5.12860161 137.822326,5.32264963 137.806321,5.53650167 C137.790316,5.75035371 137.70229,5.97608304 137.542239,6.21369642 C137.382189,6.45130981 137.194133,6.6809993 136.978065,6.90277179 C136.761997,7.12454428 136.53793,7.34235328 136.305857,7.55620532 C136.073784,7.77005737 135.869723,7.95618506 135.693668,8.11459398 L136.245839,11.6787769 C136.725989,11.5837315 137.126109,11.5084884 137.44621,11.4530453 C137.76631,11.3976022 138.070401,11.3619607 138.358492,11.3461198 C138.646582,11.3302789 138.93867,11.3342391 139.234763,11.3580004 C139.530856,11.3817618 139.886962,11.4174032 140.303093,11.4649259 C140.447138,11.4966077 140.48715,11.575811 140.42313,11.7025381 C140.39112,11.7817426 140.339104,11.8213442 140.267082,11.8213442 L140.063019,11.8213442 C139.694903,11.8055033 139.378808,11.7896627 139.114725,11.7738218 C138.850642,11.7579809 138.586563,11.761941 138.322481,11.7857024 C138.058398,11.8094637 137.770311,11.8490654 137.458213,11.9045085 C137.146115,11.9599516 136.766002,12.043115 136.317861,12.1540013 C136.413891,12.8668414 136.393885,13.6232327 136.257842,14.4231977 C136.1218,15.2231628 135.885729,15.9993549 135.549623,16.7517972 C135.213518,17.5042396 134.793392,18.1972683 134.289234,18.8309039 C133.785075,19.4645396 133.216906,19.9595601 132.584707,20.3159802 C131.952508,20.6724002 131.268304,20.8624881 130.532072,20.8862494 C129.795841,20.9100108 129.027611,20.6922018 128.22736,20.2328159 C127.715199,19.9318389 127.399105,19.5595836 127.279067,19.1160386 C127.159029,18.6724936 127.183036,18.197274 127.351089,17.6903654 C127.519142,17.1834569 127.807228,16.6686356 128.215356,16.1458861 C128.623485,15.6231367 129.095626,15.1241561 129.631794,14.6489293 C130.167963,14.1737026 130.748136,13.7460049 131.372332,13.3658235 C131.996528,12.9856421 132.612713,12.69259 133.220904,12.4866584 C133.140878,12.0589543 133.080861,11.6827387 133.040848,11.3580004 C133.000835,11.0332621 132.94882,10.6570466 132.8848,10.2293425 C132.612714,10.308547 132.26461,10.4907145 131.840477,10.7758506 C131.416344,11.0609866 130.984214,11.3896802 130.544076,11.7619412 C130.103938,12.1342021 129.695816,12.518338 129.319698,12.9143603 C128.94358,13.3103826 128.683502,13.658877 128.539457,13.959854 C128.475436,14.0232175 128.403415,14.0469785 128.32339,14.0311376 C128.243365,14.0152967 128.179345,13.9836154 128.13133,13.9360927 C128.083315,13.904411 128.059308,13.8529288 128.059308,13.7816448 C128.059308,13.7103608 128.091318,13.6509583 128.155338,13.6034357 Z M133.220904,12.9381215 C132.228592,13.2707803 131.336325,13.7420397 130.544076,14.3519141 C129.751827,14.9617884 129.107635,15.5993748 128.611479,16.2646922 C128.115323,16.9300097 127.807231,17.5675961 127.687193,18.1774704 C127.567155,18.7873448 127.691193,19.2506839 128.059308,19.5675017 C128.395414,19.8367969 128.767525,19.935801 129.175653,19.864517 C129.583781,19.793233 129.991903,19.599185 130.400032,19.2823671 C130.80816,18.9655493 131.196276,18.5536922 131.564392,18.0467837 C131.932507,17.5398752 132.252603,16.9973327 132.524688,16.4191402 C132.796774,15.8409476 133.000835,15.2469231 133.136878,14.6370487 C133.27292,14.0271744 133.300929,13.460871 133.220904,12.9381215 Z M135.669661,7.54432471 C136.197826,7.08493884 136.589944,6.70872329 136.846024,6.41566679 C137.102105,6.12261028 137.270155,5.8810403 137.35018,5.6909496 C137.430205,5.50085889 137.434206,5.35037267 137.362184,5.23948643 C137.290161,5.12860018 137.198134,5.03355626 137.086098,4.95435179 C137.006073,4.90682912 136.898041,4.90286895 136.761998,4.94247118 C136.625955,4.98207341 136.481912,5.092958 136.329865,5.27512826 C136.177817,5.45729852 136.037775,5.73054981 135.909735,6.09489033 C135.781695,6.45923085 135.701671,6.94237081 135.669661,7.54432471 Z M144.180291,13.1757337 C144.644437,12.8113932 145.15659,12.3995362 145.716766,11.9401503 C146.276942,11.4807644 146.829107,11.0609871 147.373278,10.6808057 C147.917449,10.3006243 148.429602,10.003612 148.909753,9.78975995 C149.389904,9.5759079 149.790024,9.5323461 150.110124,9.65907324 C150.3502,9.75411859 150.554261,9.88876416 150.722313,10.063014 C150.890366,10.2372638 151.010402,10.4273516 151.082425,10.6332832 C151.154447,10.8392148 151.166451,11.0491035 151.118436,11.2629556 C151.070421,11.4768076 150.942382,11.6787759 150.734317,11.8688666 C150.430222,12.1381618 150.046107,12.4153733 149.581961,12.7005093 C149.117815,12.9856454 148.625668,13.2588967 148.105505,13.5202714 C147.585341,13.7816461 147.061184,14.0152958 146.533018,14.2212274 C146.004853,14.427159 145.524709,14.5776452 145.092573,14.6726905 C145.556719,14.9261448 145.900822,15.2231571 146.124892,15.5637363 C146.348963,15.9043155 146.501008,16.25677 146.581033,16.6211105 C146.661058,16.9854511 146.697069,17.3497861 146.689067,17.7141266 C146.681064,18.0784671 146.677063,18.4071607 146.677063,18.7002172 C146.677063,18.9932737 146.70107,19.2388039 146.749085,19.436815 C146.7971,19.6348262 146.925139,19.7575913 147.133204,19.8051139 C147.405289,19.7575913 147.705379,19.5873042 148.033482,19.2942477 C148.361585,19.0011912 148.693685,18.6408163 149.02979,18.2131122 C149.365896,17.7854081 149.705998,17.322069 150.050106,16.8230809 C150.394214,16.3240928 150.710308,15.8369927 150.998399,15.3617659 C151.286489,14.8865391 151.546567,14.4588415 151.77864,14.0786601 C152.010713,13.6984786 152.190767,13.4133469 152.318807,13.2232562 C152.414837,13.096529 152.534873,13.0806884 152.678918,13.1757337 C152.822963,13.28662 152.838968,13.4133452 152.726933,13.5559132 C152.502863,13.9202537 152.218778,14.3875531 151.87467,14.9578252 C151.530562,15.5280973 151.154449,16.126082 150.746321,16.7517972 C150.338193,17.3775125 149.906063,17.9834175 149.44992,18.5695305 C148.993777,19.1556435 148.541642,19.6467038 148.093501,20.0427261 C147.725385,20.359544 147.353274,20.6129944 146.977156,20.8030852 C146.601038,20.9931759 146.164907,20.9614945 145.668751,20.7080403 C145.428676,20.597154 145.256624,20.403106 145.152592,20.1258904 C145.048559,19.8486748 144.976538,19.5318617 144.936525,19.1754416 C144.896512,18.8190215 144.876506,18.4388458 144.876506,18.0349031 C144.876506,17.6309603 144.852499,17.2428643 144.804484,16.8706033 C144.756469,16.4983424 144.668443,16.1617285 144.540403,15.8607515 C144.412362,15.5597746 144.212302,15.3221647 143.940217,15.1479149 L143.604113,14.9815864 C143.348033,15.6627448 143.091956,16.4389368 142.835876,17.3101859 C142.579795,18.181435 142.339723,19.052671 142.115653,19.92392 C141.891583,20.7951691 141.68352,21.6109628 141.49146,22.3713256 L141.035319,24.1771783 C140.955294,24.2880646 140.759235,24.3672678 140.447137,24.4147905 C140.135039,24.4623132 139.80294,24.4860742 139.450829,24.4860742 C139.098719,24.4860742 138.774622,24.4662733 138.478529,24.4266711 C138.182436,24.3870689 138.026389,24.3197461 138.010384,24.2247008 C138.042394,23.7336331 138.174434,22.9851622 138.406507,21.9792655 C138.638579,20.9733689 138.946672,19.8249214 139.330792,18.5338887 C139.714913,17.242856 140.167048,15.8607589 140.687212,14.3875559 C141.207375,12.9143529 141.783547,11.4570127 142.415746,10.0154915 C143.047944,8.57397035 143.732149,7.20771389 144.46838,5.91668118 C145.204612,4.62564847 145.96884,3.51284249 146.761089,2.57822985 C147.553338,1.64361721 148.369582,0.942668251 149.209846,0.475361932 C150.05011,0.00805561345 150.902365,-0.114709459 151.766636,0.107063031 C152.374827,0.233790168 152.770946,0.471399986 152.955004,0.819899614 C153.139061,1.16839924 153.16707,1.59213675 153.03903,2.09112485 C152.910989,2.59011296 152.650912,3.14849603 152.258788,3.76629082 C151.866665,4.38408562 151.406528,5.0177118 150.878362,5.66718838 C150.350196,6.31666496 149.782026,6.96613179 149.173835,7.61560837 C148.565644,8.26508495 147.977468,8.86702982 147.409289,9.42146105 C146.841111,9.97589227 146.316954,10.4709127 145.836803,10.9065373 C145.356652,11.3421618 144.98054,11.6787757 144.708454,11.9163891 C144.580414,12.1856843 144.472382,12.4312144 144.384354,12.6529869 C144.296327,12.8747594 144.228306,13.0490066 144.180291,13.1757337 Z M152.342814,2.50694619 C152.598895,1.73074248 152.574888,1.31888546 152.270792,1.27136278 C151.934686,1.19215832 151.566576,1.28324209 151.166451,1.54461681 C150.766325,1.80599153 150.354202,2.18220707 149.930069,2.67327473 C149.505935,3.16434239 149.077807,3.74648644 148.645672,4.41972436 C148.213536,5.09296227 147.79341,5.79391124 147.385282,6.52259228 C146.977154,7.25127332 146.589038,7.98390359 146.220922,8.72050507 C145.852806,9.45710656 145.524708,10.1342945 145.236618,10.7520893 C145.604733,10.4194306 146.016857,10.0392549 146.473,9.6115508 C146.929143,9.18384671 147.397283,8.7284279 147.877434,8.24528069 C148.357585,7.76213347 148.837728,7.26315286 149.317879,6.74832386 C149.79803,6.23349487 150.238162,5.72659392 150.638287,5.22760582 C151.038413,4.72861771 151.390518,4.24547775 151.694614,3.77817143 C151.998709,3.31086511 152.214774,2.8871276 152.342814,2.50694619 Z M149.894057,11.1797913 C150.214158,10.9104961 150.358201,10.6808066 150.326191,10.4907159 C150.294181,10.3006252 150.118128,10.1659797 149.798028,10.0867752 C149.525942,10.0392525 149.157832,10.1501371 148.693686,10.4194323 C148.229541,10.6887274 147.72539,11.0332617 147.181219,11.4530453 C146.637048,11.8728289 146.088884,12.3163673 145.536711,12.7836736 C144.984537,13.2509799 144.484387,13.6509564 144.036247,13.9836152 L143.892202,14.292511 C144.244313,14.1182612 144.696448,13.9123327 145.248621,13.6747193 C145.800795,13.4371059 146.364964,13.1796953 146.941145,12.9024797 C147.517326,12.6252641 148.073492,12.3401323 148.60966,12.0470758 C149.145829,11.7540193 149.573957,11.4649273 149.894057,11.1797913 Z M157.012258,18.0467837 C156.692157,18.4111242 156.352055,18.7794194 155.991942,19.1516804 C155.631829,19.5239414 155.263719,19.852635 154.887601,20.137771 C154.511483,20.4229071 154.139371,20.6407161 153.771256,20.7912045 C153.40314,20.941693 153.051035,20.9773345 152.714929,20.89813 C152.250784,20.7714029 151.918684,20.4981516 151.718621,20.078368 C151.518559,19.6585843 151.418529,19.1477232 151.418529,18.5457693 C151.418529,17.9438154 151.510556,17.2864282 151.694614,16.5735881 C151.878672,15.8607479 152.126746,15.1518787 152.438844,14.446959 C152.750942,13.7420393 153.115051,13.0688114 153.531182,12.4272553 C153.947312,11.7856992 154.383443,11.2391966 154.839586,10.7877312 C155.295729,10.3362657 155.759868,10.0154925 156.232017,9.82540178 C156.704165,9.63531107 157.164302,9.62739074 157.612443,9.80164056 C157.820509,9.88084502 158.012566,10.0075703 158.188621,10.1818201 C158.364677,10.3560699 158.532727,10.5540781 158.692777,10.7758506 C158.852827,10.997623 158.99687,11.2312727 159.124911,11.4768065 C159.252951,11.7223404 159.364984,11.9639103 159.461015,12.2015237 C159.717095,11.6787743 159.957167,11.211475 160.181237,10.7996118 C160.405308,10.3877486 160.597365,10.0471745 160.757415,9.77787934 C160.83744,9.66699309 161.061507,9.59967031 161.429623,9.57590897 C161.797739,9.55214763 162.177852,9.56402813 162.569976,9.6115508 C162.962099,9.65907348 163.3022,9.72639626 163.590291,9.81352117 C163.878381,9.90064607 163.982413,9.99965017 163.902387,10.1105364 C163.838367,10.1739 163.706328,10.4194301 163.506265,10.8471342 C163.306202,11.2748383 163.058128,11.8055002 162.762035,12.4391359 C162.465942,13.0727716 162.145846,13.7816409 161.801738,14.5657651 C161.45763,15.3498892 161.117528,16.1340016 160.781423,16.9181258 C160.445317,17.7022499 160.137225,18.4507209 159.857137,19.163561 C159.577049,19.8764012 159.348981,20.478346 159.172926,20.9694137 C158.99687,21.4763222 158.884837,21.8644183 158.836822,22.1337134 C158.788807,22.4030086 158.796809,22.5653753 158.860829,22.6208184 C158.924849,22.6762616 159.040884,22.6485404 159.208937,22.5376542 C159.376989,22.4267679 159.581051,22.2446004 159.821126,21.9911461 C160.157231,21.6584874 160.52134,21.2268296 160.913464,20.6961597 C161.305587,20.1654898 161.701705,19.6031465 162.101831,19.0091131 C162.501957,18.4150796 162.886071,17.8131348 163.254187,17.2032604 C163.622303,16.5933861 163.958403,16.035003 164.262499,15.5280944 C164.566594,15.0211859 164.814668,14.5974484 165.006729,14.2568692 C165.198789,13.91629 165.310823,13.7143217 165.342833,13.6509581 C165.374843,13.5875945 165.426858,13.5479929 165.498881,13.532152 C165.570904,13.5163111 165.638924,13.5242314 165.702944,13.5559132 C165.766964,13.587595 165.806976,13.6390771 165.822981,13.7103612 C165.838986,13.7816452 165.830984,13.848968 165.798974,13.9123315 C165.702944,14.0548995 165.530892,14.3479517 165.282814,14.7914966 C165.034736,15.2350416 164.730645,15.7577832 164.370532,16.3597371 C164.010419,16.961691 163.606298,17.6111579 163.158157,18.3081571 C162.710017,19.0051564 162.241877,19.6902647 161.753723,20.3635026 C161.26557,21.0367405 160.769422,21.6664065 160.265263,22.2525195 C159.761105,22.8386325 159.27696,23.3178123 158.812814,23.6900733 C158.348668,24.0623343 157.908537,24.2920238 157.492406,24.3791487 C157.076275,24.4662736 156.716168,24.3514288 156.412072,24.034611 C156.236017,23.8445203 156.139988,23.5118665 156.123983,23.0366398 C156.107978,22.561413 156.143989,22.0347113 156.232017,21.4565187 C156.320044,20.8783261 156.436079,20.2843016 156.580124,19.6744272 C156.724169,19.0645529 156.868212,18.5220105 157.012258,18.0467837 Z M159.148918,12.8430766 C159.084898,12.6846677 159.020879,12.5302213 158.956859,12.3797329 C158.892839,12.2292444 158.820817,12.0827183 158.740792,11.9401503 C158.532727,11.6074916 158.280651,11.496607 157.984558,11.6074932 C157.688465,11.7183795 157.380373,11.9757901 157.060273,12.3797329 C156.740172,12.7836756 156.416075,13.2826562 156.087972,13.8766897 C155.759869,14.4707231 155.46378,15.0845485 155.199697,15.7181842 C154.935614,16.3518199 154.71955,16.9577249 154.551497,17.5359175 C154.383444,18.11411 154.287416,18.5853695 154.263408,18.94971 C154.2394,19.3140506 154.307421,19.5318596 154.467471,19.6031436 C154.627521,19.6744276 154.907605,19.5041406 155.307731,19.0922774 C155.707856,18.7279368 156.075967,18.343801 156.412072,17.9398582 C156.748178,17.5359155 157.100283,17.1280186 157.468399,16.7161554 C157.708474,16.0508379 157.976554,15.3894906 158.272647,14.7320936 C158.56874,14.0746966 158.860828,13.4450305 159.148918,12.8430766 Z M171.18864,17.9992613 C170.900549,18.3636018 170.572451,18.7477377 170.204335,19.1516804 C169.83622,19.5556232 169.440101,19.9120379 169.015968,20.2209353 C168.591835,20.5298327 168.147702,20.7436815 167.683556,20.8624882 C167.21941,20.9812949 166.739267,20.9377331 166.243111,20.7318015 C165.746955,20.5258699 165.434862,20.1338137 165.306822,19.5556211 C165.178781,18.9774286 165.17478,18.3121211 165.294818,17.5596787 C165.414856,16.8072363 165.618917,16.0112434 165.907007,15.1716761 C166.195098,14.3321089 166.499189,13.536116 166.819289,12.7836736 C167.13939,12.0312312 167.447482,11.3659237 167.743575,10.7877312 C168.039668,10.2095386 168.251731,9.80956207 168.379771,9.58778958 C168.427787,9.52442601 168.555825,9.47690405 168.76389,9.44522227 C168.971956,9.41354048 169.208026,9.39769983 169.472109,9.39769983 C169.736192,9.39769983 170.008273,9.41354048 170.288361,9.44522227 C170.568449,9.47690405 170.824526,9.51650569 171.056599,9.56402836 C171.288672,9.61155104 171.468726,9.66699333 171.596766,9.7303569 C171.724806,9.79372047 171.756816,9.85708309 171.692796,9.92044665 C171.500735,10.15806 171.236656,10.6095187 170.900551,11.2748362 C170.564445,11.9401536 170.216341,12.6925847 169.856228,13.532152 C169.496115,14.3717193 169.156013,15.2271146 168.835912,16.0983637 C168.515812,16.9696128 168.287744,17.726004 168.151701,18.3675602 C168.015658,19.0091163 167.999653,19.4645351 168.103686,19.7338303 C168.207719,20.0031254 168.491804,19.9556035 168.95595,19.591263 C169.228035,19.3536496 169.524124,19.0566373 169.844224,18.7002172 C170.164325,18.3437972 170.532435,17.9200597 170.948565,17.428992 L172.148937,15.8607515 C172.501047,15.0687069 172.825144,14.3241961 173.121237,13.6271969 C173.41733,12.9301976 173.677408,12.3084519 173.901478,11.7619412 C174.125549,11.2154304 174.317606,10.7639717 174.477656,10.4075517 C174.637707,10.0511316 174.74974,9.8095616 174.81376,9.68283446 C174.893785,9.57194822 175.129856,9.50462543 175.521979,9.4808641 C175.914102,9.45710276 176.326226,9.46106292 176.758361,9.49274471 C177.190497,9.52442649 177.56661,9.58382894 177.88671,9.67095385 C178.206811,9.75807876 178.334849,9.85708285 178.270829,9.96796909 C177.806683,10.8233773 177.222508,12.09855 176.518287,13.7935254 C175.814066,15.4885009 174.941805,17.4369014 173.901478,19.6387854 C174.509669,19.3219676 175.141858,18.9576325 175.798064,18.5457693 C176.454271,18.1339061 177.114468,17.6666068 177.778677,17.1438574 C178.442885,16.6211079 179.09508,16.0310435 179.735282,15.3736465 C180.375483,14.7162495 180.991667,13.9756989 181.583853,13.1519725 C181.647873,13.1202907 181.715893,13.1044501 181.787916,13.1044501 C181.859939,13.1044501 181.911954,13.1361314 181.943964,13.1994949 C182.072004,13.3262221 182.064002,13.445027 181.919957,13.5559132 C181.375786,14.4271623 180.7556,15.219195 180.059382,15.9320352 C179.363163,16.6448753 178.638946,17.290382 177.88671,17.8685746 C177.134474,18.4467671 176.370245,18.9695087 175.594001,19.436815 C174.817758,19.9041214 174.085539,20.3278589 173.397322,20.7080403 C173.205262,21.1199035 172.96519,21.6426451 172.6771,22.2762808 C172.389009,22.9099164 172.052909,23.5950248 171.668788,24.3316262 C171.284667,25.0682277 170.856539,25.824619 170.384391,26.6008227 C169.912243,27.3770264 169.40009,28.1056965 168.847916,28.7868549 C168.295743,29.4680132 167.695563,30.0699581 167.04736,30.5927076 C166.399156,31.115457 165.706949,31.4877124 164.970718,31.7094849 C164.074436,31.9946209 163.310208,32.069864 162.678009,31.9352165 C162.04581,31.8005689 161.57767,31.5193973 161.273575,31.0916932 C160.969479,30.6639891 160.841441,30.1214467 160.889456,29.4640496 C160.937471,28.8066526 161.193548,28.0977833 161.657694,27.3374205 C162.057819,26.6879439 162.557969,26.0582779 163.158157,25.4484036 C163.758346,24.8385292 164.418543,24.2643055 165.13877,23.7257151 C165.858996,23.1871248 166.619223,22.6881442 167.419475,22.2287583 C168.219726,21.7693724 169.003961,21.3575154 169.772202,20.9931749 C170.028282,20.4862664 170.272355,19.9872857 170.504428,19.4962181 C170.736501,19.0051504 170.964569,18.5061698 171.18864,17.9992613 Z M162.329901,27.3374205 C162.153846,27.6225566 161.989797,27.9195688 161.837749,28.2284662 C161.685702,28.5373636 161.569667,28.8343759 161.489642,29.119512 C161.409617,29.404648 161.373606,29.6660188 161.381608,29.9036322 C161.389611,30.1412456 161.465634,30.3313334 161.609679,30.4739015 C162.137845,30.7748784 162.722019,30.7313166 163.36222,30.3432148 C164.002422,29.9551129 164.662619,29.3373274 165.342833,28.4898396 C166.023046,27.6423519 166.715253,26.6206297 167.419475,25.4246423 C168.123696,24.228655 168.803899,22.9653628 169.460105,21.6347278 C168.051663,22.3000453 166.715263,23.1079187 165.450866,24.0583722 C164.186469,25.0088257 163.146158,26.1018309 162.329901,27.3374205 Z M186.181274,18.0467837 C185.861173,18.4111242 185.521072,18.7794194 185.160959,19.1516804 C184.800846,19.5239414 184.432735,19.852635 184.056617,20.137771 C183.680499,20.4229071 183.308388,20.6407161 182.940272,20.7912045 C182.572157,20.941693 182.220051,20.9773345 181.883946,20.89813 C181.4198,20.7714029 181.087701,20.4981516 180.887638,20.078368 C180.687575,19.6585843 180.587545,19.1477232 180.587545,18.5457693 C180.587545,17.9438154 180.679572,17.2864282 180.86363,16.5735881 C181.047688,15.8607479 181.295762,15.1518787 181.60786,14.446959 C181.919958,13.7420393 182.284067,13.0688114 182.700198,12.4272553 C183.116329,11.7856992 183.552459,11.2391966 184.008602,10.7877312 C184.464746,10.3362657 184.928885,10.0154925 185.401033,9.82540178 C185.873181,9.63531107 186.333319,9.62739074 186.78146,9.80164056 C186.989525,9.88084502 187.181582,10.0075703 187.357638,10.1818201 C187.533693,10.3560699 187.701743,10.5540781 187.861793,10.7758506 C188.021844,10.997623 188.165887,11.2312727 188.293927,11.4768065 C188.421967,11.7223404 188.534001,11.9639103 188.630031,12.2015237 C188.886111,11.6787743 189.126183,11.211475 189.350254,10.7996118 C189.574324,10.3877486 189.766381,10.0471745 189.926432,9.77787934 C190.006457,9.66699309 190.230524,9.59967031 190.598639,9.57590897 C190.966755,9.55214763 191.346869,9.56402813 191.738992,9.6115508 C192.131115,9.65907348 192.471217,9.72639626 192.759307,9.81352117 C193.047398,9.90064607 193.151429,9.99965017 193.071404,10.1105364 C193.007384,10.1739 192.875344,10.4194301 192.675281,10.8471342 C192.475219,11.2748383 192.227144,11.8055002 191.931051,12.4391359 C191.634958,13.0727716 191.314863,13.7816409 190.970754,14.5657651 C190.626646,15.3498892 190.286545,16.1340016 189.950439,16.9181258 C189.614334,17.7022499 189.306241,18.4507209 189.026153,19.163561 C188.746065,19.8764012 188.517997,20.478346 188.341942,20.9694137 C188.165887,21.4763222 188.053853,21.8644183 188.005838,22.1337134 C187.957823,22.4030086 187.965825,22.5653753 188.029845,22.6208184 C188.093866,22.6762616 188.2099,22.6485404 188.377953,22.5376542 C188.546006,22.4267679 188.750067,22.2446004 188.990142,21.9911461 C189.326248,21.6584874 189.690357,21.2268296 190.08248,20.6961597 C190.474603,20.1654898 190.870722,19.6031465 191.270847,19.0091131 C191.670973,18.4150796 192.055088,17.8131348 192.423203,17.2032604 C192.791319,16.5933861 193.12742,16.035003 193.431515,15.5280944 C193.735611,15.0211859 193.983685,14.5974484 194.175745,14.2568692 C194.367805,13.91629 194.479839,13.7143217 194.511849,13.6509581 C194.543859,13.5875945 194.595875,13.5479929 194.667897,13.532152 C194.73992,13.5163111 194.80794,13.5242314 194.87196,13.5559132 C194.93598,13.587595 194.975992,13.6390771 194.991997,13.7103612 C195.008002,13.7816452 195,13.848968 194.96799,13.9123315 C194.87196,14.0548995 194.699908,14.3479517 194.45183,14.7914966 C194.203753,15.2350416 193.899662,15.7577832 193.539548,16.3597371 C193.179435,16.961691 192.775315,17.6111579 192.327174,18.3081571 C191.879033,19.0051564 191.410893,19.6902647 190.92274,20.3635026 C190.434586,21.0367405 189.938438,21.6664065 189.43428,22.2525195 C188.930121,22.8386325 188.445976,23.3178123 187.981831,23.6900733 C187.517685,24.0623343 187.077553,24.2920238 186.661422,24.3791487 C186.245292,24.4662736 185.885184,24.3514288 185.581088,24.034611 C185.405033,23.8445203 185.309004,23.5118665 185.292999,23.0366398 C185.276994,22.561413 185.313005,22.0347113 185.401033,21.4565187 C185.48906,20.8783261 185.605095,20.2843016 185.74914,19.6744272 C185.893186,19.0645529 186.037229,18.5220105 186.181274,18.0467837 Z M188.317934,12.8430766 C188.253914,12.6846677 188.189895,12.5302213 188.125875,12.3797329 C188.061855,12.2292444 187.989833,12.0827183 187.909808,11.9401503 C187.701743,11.6074916 187.449668,11.496607 187.153575,11.6074932 C186.857482,11.7183795 186.549389,11.9757901 186.229289,12.3797329 C185.909188,12.7836756 185.585091,13.2826562 185.256988,13.8766897 C184.928885,14.4707231 184.632797,15.0845485 184.368714,15.7181842 C184.104631,16.3518199 183.888566,16.9577249 183.720513,17.5359175 C183.552461,18.11411 183.456432,18.5853695 183.432424,18.94971 C183.408417,19.3140506 183.476437,19.5318596 183.636487,19.6031436 C183.796538,19.6744276 184.076621,19.5041406 184.476747,19.0922774 C184.876873,18.7279368 185.244983,18.343801 185.581088,17.9398582 C185.917194,17.5359155 186.269299,17.1280186 186.637415,16.7161554 C186.87749,16.0508379 187.145571,15.3894906 187.441664,14.7320936 C187.737757,14.0746966 188.029844,13.4450305 188.317934,12.8430766 Z" id="Diana-Datskaya-Copy" fill="#000000"></path>
    </g>
</svg>